<svg class="main-svg" xmlns="http://www.w3.org/2000/svg" xmlns:xlink="http://www.w3.org/1999/xlink" width="1600" height="900" style="" viewBox="0 0 1600 900"><rect x="0" y="0" width="1600" height="900" style="fill: rgb(255, 255, 255); fill-opacity: 1;"/><defs id="defs-f7e9db"><g class="clips"><clipPath id="clipf7e9dbxyplot" class="plotclip"><rect width="1455" height="700"/></clipPath><clipPath class="axesclip" id="clipf7e9dbx"><rect x="90" y="0" width="1455" height="900"/></clipPath><clipPath class="axesclip" id="clipf7e9dby"><rect x="0" y="115" width="1600" height="700"/></clipPath><clipPath class="axesclip" id="clipf7e9dbxy"><rect x="90" y="115" width="1455" height="700"/></clipPath></g><g class="gradients"/><g class="patterns"/></defs><g class="bglayer"/><g class="layer-below"><g class="imagelayer"/><g class="shapelayer"/></g><g class="cartesianlayer"><g class="subplot xy"><g class="layer-subplot"><g class="shapelayer"/><g class="imagelayer"/></g><g class="minor-gridlayer"><g class="x"/><g class="y"/></g><g class="gridlayer"><g class="x"/><g class="y"><path class="ygrid crisp" transform="translate(0,733.46)" d="M90,0h1455" style="stroke: rgb(226, 232, 240); stroke-opacity: 1; stroke-width: 1px;"/><path class="ygrid crisp" transform="translate(0,622.39)" d="M90,0h1455" style="stroke: rgb(226, 232, 240); stroke-opacity: 1; stroke-width: 1px;"/><path class="ygrid crisp" transform="translate(0,511.33)" d="M90,0h1455" style="stroke: rgb(226, 232, 240); stroke-opacity: 1; stroke-width: 1px;"/><path class="ygrid crisp" transform="translate(0,289.2)" d="M90,0h1455" style="stroke: rgb(226, 232, 240); stroke-opacity: 1; stroke-width: 1px;"/><path class="ygrid crisp" transform="translate(0,178.14)" d="M90,0h1455" style="stroke: rgb(226, 232, 240); stroke-opacity: 1; stroke-width: 1px;"/></g></g><g class="zerolinelayer"><path class="yzl zl crisp" transform="translate(0,400.27)" d="M90,0h1455" style="stroke: rgb(235, 240, 248); stroke-opacity: 1; stroke-width: 2px;"/></g><g class="layer-between"><g class="shapelayer"/><g class="imagelayer"/></g><path class="xlines-below"/><path class="ylines-below"/><g class="overlines-below"/><g class="xaxislayer-below"/><g class="yaxislayer-below"/><g class="overaxes-below"/><g class="overplot"><g class="xy" transform="translate(90,115)" clip-path="url(#clipf7e9dbxyplot)"><g class="scatterlayer mlayer"><g class="trace scatter trace0b4fe1" style="stroke-miterlimit: 2; opacity: 1;"><g class="fills"/><g class="errorbars"/><g class="lines"><path class="js-line" d="M80.25,42.5L727.5,432.35L1374.75,398.62" style="vector-effect: none; fill: none; stroke: rgb(22, 163, 74); stroke-opacity: 1; stroke-width: 4px; opacity: 1;"/></g><g class="points"><path class="point" transform="translate(80.25,42.5)" d="M6,0A6,6 0 1,1 0,-6A6,6 0 0,1 6,0Z" style="opacity: 1; stroke-width: 0px; fill: rgb(22, 163, 74); fill-opacity: 1;"/><path class="point" transform="translate(727.5,432.35)" d="M6,0A6,6 0 1,1 0,-6A6,6 0 0,1 6,0Z" style="opacity: 1; stroke-width: 0px; fill: rgb(22, 163, 74); fill-opacity: 1;"/><path class="point" transform="translate(1374.75,398.62)" d="M6,0A6,6 0 1,1 0,-6A6,6 0 0,1 6,0Z" style="opacity: 1; stroke-width: 0px; fill: rgb(22, 163, 74); fill-opacity: 1;"/></g><g class="text"><g class="textpoint" transform="translate(0,-12.5)"><text x="80.25" y="42.5" text-anchor="middle" style="font-family: Arial, Helvetica, sans-serif; font-size: 16px; fill: rgb(42, 63, 95); fill-opacity: 1; white-space: pre;">21,9%</text></g><g class="textpoint" transform="translate(0,-12.5)"><text x="727.5" y="432.35" text-anchor="middle" style="font-family: Arial, Helvetica, sans-serif; font-size: 16px; fill: rgb(42, 63, 95); fill-opacity: 1; white-space: pre;">-13,2%</text></g><g class="textpoint" transform="translate(0,-12.5)"><text x="1374.75" y="398.62" text-anchor="middle" style="font-family: Arial, Helvetica, sans-serif; font-size: 16px; fill: rgb(42, 63, 95); fill-opacity: 1; white-space: pre;">-10,2%</text></g></g></g><g class="trace scatter trace4c8947" style="stroke-miterlimit: 2; opacity: 1;"><g class="fills"/><g class="errorbars"/><g class="lines"><path class="js-line" d="M80.25,444.12L727.5,605.06L1374.75,657.5" style="vector-effect: none; fill: none; stroke: rgb(124, 58, 237); stroke-opacity: 1; stroke-width: 4px; opacity: 1;"/></g><g class="points"><path class="point" transform="translate(80.25,444.12)" d="M6,0A6,6 0 1,1 0,-6A6,6 0 0,1 6,0Z" style="opacity: 1; stroke-width: 0px; fill: rgb(124, 58, 237); fill-opacity: 1;"/><path class="point" transform="translate(727.5,605.06)" d="M6,0A6,6 0 1,1 0,-6A6,6 0 0,1 6,0Z" style="opacity: 1; stroke-width: 0px; fill: rgb(124, 58, 237); fill-opacity: 1;"/><path class="point" transform="translate(1374.75,657.5)" d="M6,0A6,6 0 1,1 0,-6A6,6 0 0,1 6,0Z" style="opacity: 1; stroke-width: 0px; fill: rgb(124, 58, 237); fill-opacity: 1;"/></g><g class="text"><g class="textpoint" transform="translate(0,-12.5)"><text x="80.25" y="444.12" text-anchor="middle" style="font-family: Arial, Helvetica, sans-serif; font-size: 16px; fill: rgb(42, 63, 95); fill-opacity: 1; white-space: pre;">-14,3%</text></g><g class="textpoint" transform="translate(0,-12.5)"><text x="727.5" y="605.06" text-anchor="middle" style="font-family: Arial, Helvetica, sans-serif; font-size: 16px; fill: rgb(42, 63, 95); fill-opacity: 1; white-space: pre;">-28,8%</text></g><g class="textpoint" transform="translate(0,-12.5)"><text x="1374.75" y="657.5" text-anchor="middle" style="font-family: Arial, Helvetica, sans-serif; font-size: 16px; fill: rgb(42, 63, 95); fill-opacity: 1; white-space: pre;">-33,5%</text></g></g></g><g class="trace scatter trace924767" style="stroke-miterlimit: 2; opacity: 1;"><g class="fills"/><g class="errorbars"/><g class="lines"><path class="js-line" d="M80.25,361.38L727.5,545.32L1374.75,597.74" style="vector-effect: none; fill: none; stroke: rgb(234, 88, 12); stroke-opacity: 1; stroke-width: 4px; opacity: 1;"/></g><g class="points"><path class="point" transform="translate(80.25,361.38)" d="M6,0A6,6 0 1,1 0,-6A6,6 0 0,1 6,0Z" style="opacity: 1; stroke-width: 0px; fill: rgb(234, 88, 12); fill-opacity: 1;"/><path class="point" transform="translate(727.5,545.32)" d="M6,0A6,6 0 1,1 0,-6A6,6 0 0,1 6,0Z" style="opacity: 1; stroke-width: 0px; fill: rgb(234, 88, 12); fill-opacity: 1;"/><path class="point" transform="translate(1374.75,597.74)" d="M6,0A6,6 0 1,1 0,-6A6,6 0 0,1 6,0Z" style="opacity: 1; stroke-width: 0px; fill: rgb(234, 88, 12); fill-opacity: 1;"/></g><g class="text"><g class="textpoint" transform="translate(0,-12.5)"><text x="80.25" y="361.38" text-anchor="middle" style="font-family: Arial, Helvetica, sans-serif; font-size: 16px; fill: rgb(42, 63, 95); fill-opacity: 1; white-space: pre;">-6,9%</text></g><g class="textpoint" transform="translate(0,-12.5)"><text x="727.5" y="545.32" text-anchor="middle" style="font-family: Arial, Helvetica, sans-serif; font-size: 16px; fill: rgb(42, 63, 95); fill-opacity: 1; white-space: pre;">-23,4%</text></g><g class="textpoint" transform="translate(0,-12.5)"><text x="1374.75" y="597.74" text-anchor="middle" style="font-family: Arial, Helvetica, sans-serif; font-size: 16px; fill: rgb(42, 63, 95); fill-opacity: 1; white-space: pre;">-28,1%</text></g></g></g></g></g></g><g class="zerolinelayer-above"/><path class="xlines-above crisp" d="M90,815.5H1545" style="fill: none; stroke-width: 1px; stroke: rgb(226, 232, 240); stroke-opacity: 1;"/><path class="ylines-above crisp" d="M0,0" style="fill: none;"/><g class="overlines-above"/><g class="xaxislayer-above"><g class="xtick"><text text-anchor="middle" x="0" y="835.2" transform="translate(170.25,0)" style="font-family: Arial, Helvetica, sans-serif; font-size: 16px; fill: rgb(42, 63, 95); fill-opacity: 1; white-space: pre;">Abril</text></g><g class="xtick"><text text-anchor="middle" x="0" y="835.2" transform="translate(817.5,0)" style="font-family: Arial, Helvetica, sans-serif; font-size: 16px; fill: rgb(42, 63, 95); fill-opacity: 1; white-space: pre;">Mayo</text></g><g class="xtick"><text text-anchor="middle" x="0" y="835.2" transform="translate(1464.75,0)" style="font-family: Arial, Helvetica, sans-serif; font-size: 16px; fill: rgb(42, 63, 95); fill-opacity: 1; white-space: pre;">Junio</text></g></g><g class="yaxislayer-above"><g class="ytick"><text text-anchor="end" x="89" y="5.6" transform="translate(0,733.46)" style="font-family: Arial, Helvetica, sans-serif; font-size: 16px; fill: rgb(42, 63, 95); fill-opacity: 1; white-space: pre;">−30%</text></g><g class="ytick"><text text-anchor="end" x="89" y="5.6" style="font-family: Arial, Helvetica, sans-serif; font-size: 16px; fill: rgb(42, 63, 95); fill-opacity: 1; white-space: pre;" transform="translate(0,622.39)">−20%</text></g><g class="ytick"><text text-anchor="end" x="89" y="5.6" style="font-family: Arial, Helvetica, sans-serif; font-size: 16px; fill: rgb(42, 63, 95); fill-opacity: 1; white-space: pre;" transform="translate(0,511.33)">−10%</text></g><g class="ytick"><text text-anchor="end" x="89" y="5.6" style="font-family: Arial, Helvetica, sans-serif; font-size: 16px; fill: rgb(42, 63, 95); fill-opacity: 1; white-space: pre;" transform="translate(0,400.27)">0%</text></g><g class="ytick"><text text-anchor="end" x="89" y="5.6" style="font-family: Arial, Helvetica, sans-serif; font-size: 16px; fill: rgb(42, 63, 95); fill-opacity: 1; white-space: pre;" transform="translate(0,289.2)">10%</text></g><g class="ytick"><text text-anchor="end" x="89" y="5.6" style="font-family: Arial, Helvetica, sans-serif; font-size: 16px; fill: rgb(42, 63, 95); fill-opacity: 1; white-space: pre;" transform="translate(0,178.14)">20%</text></g></g><g class="overaxes-above"/></g></g><g class="polarlayer"/><g class="smithlayer"/><g class="ternarylayer"/><g class="geolayer"/><g class="funnelarealayer"/><g class="pielayer"/><g class="iciclelayer"/><g class="treemaplayer"/><g class="sunburstlayer"/><g class="glimages"/><defs id="topdefs-f7e9db"><g class="clips"/><clipPath id="legendf7e9db"><rect width="309" height="34" x="0" y="0"/></clipPath></defs><g class="layer-above"><g class="imagelayer"/><g class="shapelayer"><g class="shape-group" data-index="0" clip-path="url(#clipf7e9dby)"><path data-index="0" fill-rule="evenodd" d="M90,400.27L1545,400.27" style="opacity: 1; stroke: rgb(100, 116, 139); stroke-opacity: 1; fill: rgb(0, 0, 0); fill-opacity: 0; stroke-dasharray: 9px, 9px; stroke-width: 2px;"/></g></g></g><g class="infolayer"><g class="legend" pointer-events="all" transform="translate(1236,66.99999999999999)"><rect class="bg" shape-rendering="crispEdges" style="stroke: rgb(68, 68, 68); stroke-opacity: 1; fill: rgb(255, 255, 255); fill-opacity: 1; stroke-width: 0px;" width="309" height="34" x="0" y="0"/><g class="scrollbox" transform="" clip-path="url(#legendf7e9db)"><g class="groups"><g class="traces" transform="translate(0,16.9)" style="opacity: 1;"><text class="legendtext" text-anchor="start" x="40" y="6.24" style="font-family: Arial, Helvetica, sans-serif; font-size: 16px; fill: rgb(42, 63, 95); fill-opacity: 1; white-space: pre;">Primaria</text><g class="layers" style="opacity: 1;"><g class="legendfill"/><g class="legendlines"><path class="js-line" d="M5,0h30" style="fill: none; stroke: rgb(22, 163, 74); stroke-opacity: 1; stroke-width: 4px;"/></g><g class="legendsymbols"><g class="legendpoints"><path class="scatterpts" transform="translate(20,0)" d="M6,0A6,6 0 1,1 0,-6A6,6 0 0,1 6,0Z" style="opacity: 1; stroke-width: 0px; fill: rgb(22, 163, 74); fill-opacity: 1;"/></g></g></g><rect class="legendtoggle" x="0" y="-11.9" width="102.0625" height="23.8" style="fill: rgb(0, 0, 0); fill-opacity: 0;"/></g><g class="traces" transform="translate(104.5625,16.9)" style="opacity: 1;"><text class="legendtext" text-anchor="start" x="40" y="6.24" style="font-family: Arial, Helvetica, sans-serif; font-size: 16px; fill: rgb(42, 63, 95); fill-opacity: 1; white-space: pre;">Secundaria</text><g class="layers" style="opacity: 1;"><g class="legendfill"/><g class="legendlines"><path class="js-line" d="M5,0h30" style="fill: none; stroke: rgb(124, 58, 237); stroke-opacity: 1; stroke-width: 4px;"/></g><g class="legendsymbols"><g class="legendpoints"><path class="scatterpts" transform="translate(20,0)" d="M6,0A6,6 0 1,1 0,-6A6,6 0 0,1 6,0Z" style="opacity: 1; stroke-width: 0px; fill: rgb(124, 58, 237); fill-opacity: 1;"/></g></g></g><rect class="legendtoggle" x="0" y="-11.9" width="123.453125" height="23.8" style="fill: rgb(0, 0, 0); fill-opacity: 0;"/></g><g class="traces" transform="translate(230.515625,16.9)" style="opacity: 1;"><text class="legendtext" text-anchor="start" x="40" y="6.24" style="font-family: Arial, Helvetica, sans-serif; font-size: 16px; fill: rgb(42, 63, 95); fill-opacity: 1; white-space: pre;">UTU</text><g class="layers" style="opacity: 1;"><g class="legendfill"/><g class="legendlines"><path class="js-line" d="M5,0h30" style="fill: none; stroke: rgb(234, 88, 12); stroke-opacity: 1; stroke-width: 4px;"/></g><g class="legendsymbols"><g class="legendpoints"><path class="scatterpts" transform="translate(20,0)" d="M6,0A6,6 0 1,1 0,-6A6,6 0 0,1 6,0Z" style="opacity: 1; stroke-width: 0px; fill: rgb(234, 88, 12); fill-opacity: 1;"/></g></g></g><rect class="legendtoggle" x="0" y="-11.9" width="75.390625" height="23.8" style="fill: rgb(0, 0, 0); fill-opacity: 0;"/></g></g></g><rect class="scrollbar" rx="20" ry="3" width="0" height="0" style="fill: rgb(128, 139, 164); fill-opacity: 1;" x="0" y="0"/></g><g class="g-gtitle"><text class="gtitle" x="32" y="57.5" text-anchor="start" dy="0em" style="opacity: 1; font-family: Arial, Helvetica, sans-serif; font-size: 27px; fill: rgb(15, 23, 42); fill-opacity: 1; white-space: pre;"><tspan class="line" dy="0em" x="32" y="57.5"><tspan style="font-weight:bold">2. El deterioro se profundiza en mayo y junio</tspan></tspan><tspan class="line" dy="1.3em" x="32" y="57.5">​<tspan style="font-size:70%" dy="-0.6em">Variación 2026 versus 2025 dentro del panel estable de cada subsistema</tspan><tspan dy="0.42em">​</tspan></tspan></text></g><g class="g-xtitle"><text class="xtitle" x="817.5" y="866.3673828125" text-anchor="middle" style="opacity: 1; font-family: Arial, Helvetica, sans-serif; font-size: 19px; fill: rgb(42, 63, 95); fill-opacity: 1; white-space: pre;">Mes</text></g><g class="g-ytitle"><text class="ytitle" transform="rotate(-90,26.475,465)" x="26.475" y="465" text-anchor="middle" style="opacity: 1; font-family: Arial, Helvetica, sans-serif; font-size: 19px; fill: rgb(42, 63, 95); fill-opacity: 1; white-space: pre;">Variación del promedio de días (%)</text></g></g></svg>