<svg class="main-svg" xmlns="http://www.w3.org/2000/svg" xmlns:xlink="http://www.w3.org/1999/xlink" width="1600" height="900" style="" viewBox="0 0 1600 900"><rect x="0" y="0" width="1600" height="900" style="fill: rgb(255, 255, 255); fill-opacity: 1;"/><defs id="defs-3b2ab4"><g class="clips"><clipPath id="clip3b2ab4xyplot" class="plotclip"><rect width="1455" height="700"/></clipPath><clipPath class="axesclip" id="clip3b2ab4x"><rect x="90" y="0" width="1455" height="900"/></clipPath><clipPath class="axesclip" id="clip3b2ab4y"><rect x="0" y="115" width="1600" height="700"/></clipPath><clipPath class="axesclip" id="clip3b2ab4xy"><rect x="90" y="115" width="1455" height="700"/></clipPath></g><g class="gradients"/><g class="patterns"/></defs><g class="bglayer"/><g class="layer-below"><g class="imagelayer"/><g class="shapelayer"/></g><g class="cartesianlayer"><g class="subplot xy"><g class="layer-subplot"><g class="shapelayer"/><g class="imagelayer"/></g><g class="minor-gridlayer"><g class="x"/><g class="y"/></g><g class="gridlayer"><g class="x"/><g class="y"><path class="ygrid crisp" transform="translate(0,680.38)" d="M90,0h1455" style="stroke: rgb(226, 232, 240); stroke-opacity: 1; stroke-width: 1px;"/><path class="ygrid crisp" transform="translate(0,545.77)" d="M90,0h1455" style="stroke: rgb(226, 232, 240); stroke-opacity: 1; stroke-width: 1px;"/><path class="ygrid crisp" transform="translate(0,411.15)" d="M90,0h1455" style="stroke: rgb(226, 232, 240); stroke-opacity: 1; stroke-width: 1px;"/><path class="ygrid crisp" transform="translate(0,276.53999999999996)" d="M90,0h1455" style="stroke: rgb(226, 232, 240); stroke-opacity: 1; stroke-width: 1px;"/><path class="ygrid crisp" transform="translate(0,141.92000000000002)" d="M90,0h1455" style="stroke: rgb(226, 232, 240); stroke-opacity: 1; stroke-width: 1px;"/></g></g><g class="zerolinelayer"/><g class="layer-between"><g class="shapelayer"/><g class="imagelayer"/></g><path class="xlines-below"/><path class="ylines-below"/><g class="overlines-below"/><g class="xaxislayer-below"/><g class="yaxislayer-below"/><g class="overaxes-below"/><g class="overplot"><g class="xy" transform="translate(90,115)" clip-path="url(#clip3b2ab4xyplot)"><g class="scatterlayer mlayer"><g class="trace scatter tracea2bfc4" style="stroke-miterlimit: 2; opacity: 1;"><g class="fills"/><g class="errorbars"/><g class="lines"><path class="js-line" d="M80.25,247.9L511.75,135.53L943.25,140.16L1374.75,121.86" style="vector-effect: none; fill: none; stroke: rgb(124, 58, 237); stroke-opacity: 1; stroke-width: 4px; opacity: 1;"/></g><g class="points"><path class="point" transform="translate(80.25,247.9)" d="M6,0A6,6 0 1,1 0,-6A6,6 0 0,1 6,0Z" style="opacity: 1; stroke-width: 0px; fill: rgb(124, 58, 237); fill-opacity: 1;"/><path class="point" transform="translate(511.75,135.53)" d="M6,0A6,6 0 1,1 0,-6A6,6 0 0,1 6,0Z" style="opacity: 1; stroke-width: 0px; fill: rgb(124, 58, 237); fill-opacity: 1;"/><path class="point" transform="translate(943.25,140.16)" d="M6,0A6,6 0 1,1 0,-6A6,6 0 0,1 6,0Z" style="opacity: 1; stroke-width: 0px; fill: rgb(124, 58, 237); fill-opacity: 1;"/><path class="point" transform="translate(1374.75,121.86)" d="M6,0A6,6 0 1,1 0,-6A6,6 0 0,1 6,0Z" style="opacity: 1; stroke-width: 0px; fill: rgb(124, 58, 237); fill-opacity: 1;"/></g><g class="text"><g class="textpoint" transform="translate(0,-12.5)"><text x="80.25" y="247.9" text-anchor="middle" style="font-family: Arial, Helvetica, sans-serif; font-size: 16px; fill: rgb(42, 63, 95); fill-opacity: 1; white-space: pre;">0,34</text></g><g class="textpoint" transform="translate(0,-12.5)"><text x="511.75" y="135.53" text-anchor="middle" style="font-family: Arial, Helvetica, sans-serif; font-size: 16px; fill: rgb(42, 63, 95); fill-opacity: 1; white-space: pre;">0,42</text></g><g class="textpoint" transform="translate(0,-12.5)"><text x="943.25" y="140.16" text-anchor="middle" style="font-family: Arial, Helvetica, sans-serif; font-size: 16px; fill: rgb(42, 63, 95); fill-opacity: 1; white-space: pre;">0,42</text></g><g class="textpoint" transform="translate(0,-12.5)"><text x="1374.75" y="121.86" text-anchor="middle" style="font-family: Arial, Helvetica, sans-serif; font-size: 16px; fill: rgb(42, 63, 95); fill-opacity: 1; white-space: pre;">0,43</text></g></g></g><g class="trace scatter trace65af54" style="stroke-miterlimit: 2; opacity: 1;"><g class="fills"/><g class="errorbars"/><g class="lines"><path class="js-line" d="M80.25,415.07L511.75,260.33L943.25,135.86L1374.75,125.76" style="vector-effect: none; fill: none; stroke: rgb(234, 88, 12); stroke-opacity: 1; stroke-width: 4px; opacity: 1;"/></g><g class="points"><path class="point" transform="translate(80.25,415.07)" d="M6,0A6,6 0 1,1 0,-6A6,6 0 0,1 6,0Z" style="opacity: 1; stroke-width: 0px; fill: rgb(234, 88, 12); fill-opacity: 1;"/><path class="point" transform="translate(511.75,260.33)" d="M6,0A6,6 0 1,1 0,-6A6,6 0 0,1 6,0Z" style="opacity: 1; stroke-width: 0px; fill: rgb(234, 88, 12); fill-opacity: 1;"/><path class="point" transform="translate(943.25,135.86)" d="M6,0A6,6 0 1,1 0,-6A6,6 0 0,1 6,0Z" style="opacity: 1; stroke-width: 0px; fill: rgb(234, 88, 12); fill-opacity: 1;"/><path class="point" transform="translate(1374.75,125.76)" d="M6,0A6,6 0 1,1 0,-6A6,6 0 0,1 6,0Z" style="opacity: 1; stroke-width: 0px; fill: rgb(234, 88, 12); fill-opacity: 1;"/></g><g class="text"><g class="textpoint" transform="translate(0,-12.5)"><text x="80.25" y="415.07" text-anchor="middle" style="font-family: Arial, Helvetica, sans-serif; font-size: 16px; fill: rgb(42, 63, 95); fill-opacity: 1; white-space: pre;">0,21</text></g><g class="textpoint" transform="translate(0,-12.5)"><text x="511.75" y="260.33" text-anchor="middle" style="font-family: Arial, Helvetica, sans-serif; font-size: 16px; fill: rgb(42, 63, 95); fill-opacity: 1; white-space: pre;">0,33</text></g><g class="textpoint" transform="translate(0,-12.5)"><text x="943.25" y="135.86" text-anchor="middle" style="font-family: Arial, Helvetica, sans-serif; font-size: 16px; fill: rgb(42, 63, 95); fill-opacity: 1; white-space: pre;">0,42</text></g><g class="textpoint" transform="translate(0,-12.5)"><text x="1374.75" y="125.76" text-anchor="middle" style="font-family: Arial, Helvetica, sans-serif; font-size: 16px; fill: rgb(42, 63, 95); fill-opacity: 1; white-space: pre;">0,43</text></g></g></g></g></g></g><g class="zerolinelayer-above"/><path class="xlines-above crisp" d="M90,815.5H1545" style="fill: none; stroke-width: 1px; stroke: rgb(226, 232, 240); stroke-opacity: 1;"/><path class="ylines-above crisp" d="M0,0" style="fill: none;"/><g class="overlines-above"/><g class="xaxislayer-above"><g class="xtick"><text text-anchor="middle" x="0" y="835.2" transform="translate(170.25,0)" style="font-family: Arial, Helvetica, sans-serif; font-size: 16px; fill: rgb(42, 63, 95); fill-opacity: 1; white-space: pre;">Abril</text></g><g class="xtick"><text text-anchor="middle" x="0" y="835.2" transform="translate(601.75,0)" style="font-family: Arial, Helvetica, sans-serif; font-size: 16px; fill: rgb(42, 63, 95); fill-opacity: 1; white-space: pre;">Mayo</text></g><g class="xtick"><text text-anchor="middle" x="0" y="835.2" transform="translate(1033.25,0)" style="font-family: Arial, Helvetica, sans-serif; font-size: 16px; fill: rgb(42, 63, 95); fill-opacity: 1; white-space: pre;">Junio</text></g><g class="xtick"><text text-anchor="middle" x="0" y="835.2" transform="translate(1464.75,0)" style="font-family: Arial, Helvetica, sans-serif; font-size: 16px; fill: rgb(42, 63, 95); fill-opacity: 1; white-space: pre;">Mayo-Junio</text></g></g><g class="yaxislayer-above"><g class="ytick"><text text-anchor="end" x="89" y="5.6" transform="translate(0,815)" style="font-family: Arial, Helvetica, sans-serif; font-size: 16px; fill: rgb(42, 63, 95); fill-opacity: 1; white-space: pre;">0</text></g><g class="ytick"><text text-anchor="end" x="89" y="5.6" style="font-family: Arial, Helvetica, sans-serif; font-size: 16px; fill: rgb(42, 63, 95); fill-opacity: 1; white-space: pre;" transform="translate(0,680.38)">0.1</text></g><g class="ytick"><text text-anchor="end" x="89" y="5.6" style="font-family: Arial, Helvetica, sans-serif; font-size: 16px; fill: rgb(42, 63, 95); fill-opacity: 1; white-space: pre;" transform="translate(0,545.77)">0.2</text></g><g class="ytick"><text text-anchor="end" x="89" y="5.6" style="font-family: Arial, Helvetica, sans-serif; font-size: 16px; fill: rgb(42, 63, 95); fill-opacity: 1; white-space: pre;" transform="translate(0,411.15)">0.3</text></g><g class="ytick"><text text-anchor="end" x="89" y="5.6" style="font-family: Arial, Helvetica, sans-serif; font-size: 16px; fill: rgb(42, 63, 95); fill-opacity: 1; white-space: pre;" transform="translate(0,276.53999999999996)">0.4</text></g><g class="ytick"><text text-anchor="end" x="89" y="5.6" style="font-family: Arial, Helvetica, sans-serif; font-size: 16px; fill: rgb(42, 63, 95); fill-opacity: 1; white-space: pre;" transform="translate(0,141.92000000000002)">0.5</text></g></g><g class="overaxes-above"/></g></g><g class="polarlayer"/><g class="smithlayer"/><g class="ternarylayer"/><g class="geolayer"/><g class="funnelarealayer"/><g class="pielayer"/><g class="iciclelayer"/><g class="treemaplayer"/><g class="sunburstlayer"/><g class="glimages"/><defs id="topdefs-3b2ab4"><g class="clips"/><clipPath id="legend3b2ab4"><rect width="204" height="34" x="0" y="0"/></clipPath></defs><g class="layer-above"><g class="imagelayer"/><g class="shapelayer"/></g><g class="infolayer"><g class="legend" pointer-events="all" transform="translate(1341,66.99999999999999)"><rect class="bg" shape-rendering="crispEdges" style="stroke: rgb(68, 68, 68); stroke-opacity: 1; fill: rgb(255, 255, 255); fill-opacity: 1; stroke-width: 0px;" width="204" height="34" x="0" y="0"/><g class="scrollbox" transform="" clip-path="url(#legend3b2ab4)"><g class="groups"><g class="traces" transform="translate(0,16.9)" style="opacity: 1;"><text class="legendtext" text-anchor="start" x="40" y="6.24" style="font-family: Arial, Helvetica, sans-serif; font-size: 16px; fill: rgb(42, 63, 95); fill-opacity: 1; white-space: pre;">Secundaria</text><g class="layers" style="opacity: 1;"><g class="legendfill"/><g class="legendlines"><path class="js-line" d="M5,0h30" style="fill: none; stroke: rgb(124, 58, 237); stroke-opacity: 1; stroke-width: 4px;"/></g><g class="legendsymbols"><g class="legendpoints"><path class="scatterpts" transform="translate(20,0)" d="M6,0A6,6 0 1,1 0,-6A6,6 0 0,1 6,0Z" style="opacity: 1; stroke-width: 0px; fill: rgb(124, 58, 237); fill-opacity: 1;"/></g></g></g><rect class="legendtoggle" x="0" y="-11.9" width="123.453125" height="23.8" style="fill: rgb(0, 0, 0); fill-opacity: 0;"/></g><g class="traces" transform="translate(125.953125,16.9)" style="opacity: 1;"><text class="legendtext" text-anchor="start" x="40" y="6.24" style="font-family: Arial, Helvetica, sans-serif; font-size: 16px; fill: rgb(42, 63, 95); fill-opacity: 1; white-space: pre;">UTU</text><g class="layers" style="opacity: 1;"><g class="legendfill"/><g class="legendlines"><path class="js-line" d="M5,0h30" style="fill: none; stroke: rgb(234, 88, 12); stroke-opacity: 1; stroke-width: 4px;"/></g><g class="legendsymbols"><g class="legendpoints"><path class="scatterpts" transform="translate(20,0)" d="M6,0A6,6 0 1,1 0,-6A6,6 0 0,1 6,0Z" style="opacity: 1; stroke-width: 0px; fill: rgb(234, 88, 12); fill-opacity: 1;"/></g></g></g><rect class="legendtoggle" x="0" y="-11.9" width="75.390625" height="23.8" style="fill: rgb(0, 0, 0); fill-opacity: 0;"/></g></g></g><rect class="scrollbar" rx="20" ry="3" width="0" height="0" style="fill: rgb(128, 139, 164); fill-opacity: 1;" x="0" y="0"/></g><g class="g-gtitle"><text class="gtitle" x="32" y="57.5" text-anchor="start" dy="0em" style="opacity: 1; font-family: Arial, Helvetica, sans-serif; font-size: 27px; fill: rgb(15, 23, 42); fill-opacity: 1; white-space: pre;"><tspan class="line" dy="0em" x="32" y="57.5"><tspan style="font-weight:bold">3. La asociación docente-estudiante se fortalece en mayo y junio</tspan></tspan><tspan class="line" dy="1.3em" x="32" y="57.5">​<tspan style="font-size:70%" dy="-0.6em">Análisis por centro: cambio promedio docente frente a cambio promedio estudiantil</tspan><tspan dy="0.42em">​</tspan></tspan></text></g><g class="g-xtitle"><text class="xtitle" x="817.5" y="866.3673828125" text-anchor="middle" style="opacity: 1; font-family: Arial, Helvetica, sans-serif; font-size: 19px; fill: rgb(42, 63, 95); fill-opacity: 1; white-space: pre;">Período</text></g><g class="g-ytitle"><text class="ytitle" transform="rotate(-90,45.6,465)" x="45.6" y="465" text-anchor="middle" style="opacity: 1; font-family: Arial, Helvetica, sans-serif; font-size: 19px; fill: rgb(42, 63, 95); fill-opacity: 1; white-space: pre;">Correlación entre cambio docente y estudiantil</text></g></g></svg>